# xmcd
#
# Track frame offsets:
# 150
# 14650
# 28449
# 42196
# 51953
# 67932
# 80617
# 92033
# 103100
# 115141
# 128735
# 140816
# 153631
# 165969
# 179378
# 190625
# 203555
# 216783
# 230757
# 245052
#
# Disc length: 3431 seconds
#
#
# Revision: 0
# Processed by: cddbd v1.5.1PL0 Copyright (c) Steve Scherf et al.
# Submitted via: FreeRIP 2.90 
#
DISCID=1f0d6514
DTITLE=Jackie Wilson - The Brunswick Anthology [CD2]
DYEAR=2001
DGENRE=Soul
TTITLE0=The greatest hurt
TTITLE1=I just can't help it
TTITLE2=Baby workout
TTITLE3=Shake shake shake
TTITLE4=No pity (in the naked city)
TTITLE5=Soul galore
TTITLE6=Think twice
TTITLE7=Whispers (gettin' louder)
TTITLE8=I don't want to lose you
TTITLE9=Higher and higher
TTITLE10=I've lost you
TTITLE11=Since you showed me how to be happy
TTITLE12=For your precious love
TTITLE13=I get the sweetest feeling
TTITLE14=Helpless
TTITLE15=I still love you
TTITLE16=This love is real
TTITLE17=Let this be a letter (to my baby)
TTITLE18=Love is funny that way
TTITLE19=You got me walking
EXTD=
EXTT0=
EXTT1=
EXTT2=
EXTT3=
EXTT4=
EXTT5=
EXTT6=
EXTT7=
EXTT8=
EXTT9=
EXTT10=
EXTT11=
EXTT12=
EXTT13=
EXTT14=
EXTT15=
EXTT16=
EXTT17=
EXTT18=
EXTT19=
PLAYORDER=
